<svg width="24" height="24" viewBox="0 0 24 24" fill="none" xmlns="http://www.w3.org/2000/svg">
<path d="M0 12C0 5.37258 5.37258 0 12 0C18.6274 0 24 5.37258 24 12C24 18.6274 18.6274 24 12 24C5.37258 24 0 18.6274 0 12Z" fill="#1769FF"/>
<path fill-rule="evenodd" clip-rule="evenodd" d="M11.8353 10.0225C11.8353 9.55991 11.7141 9.16343 11.4725 8.83155C11.0699 8.29104 10.3873 8.01411 9.4225 8H5.6001V15.8032H9.16436C9.56624 15.8032 9.93802 15.7691 10.282 15.6986C10.6259 15.6273 10.9232 15.4974 11.1753 15.3065C11.3995 15.1402 11.5862 14.9353 11.7352 14.6925C11.9708 14.3258 12.0882 13.9107 12.0882 13.4482C12.0882 12.9997 11.9851 12.6181 11.7804 12.3048C11.5734 11.9907 11.2694 11.7613 10.866 11.6158C11.1316 11.4821 11.3326 11.3336 11.4695 11.1718C11.7141 10.8822 11.8353 10.4984 11.8353 10.0225ZM17.1689 9.33494H13.7792V8.36381H17.1689V9.33494ZM14.1743 12.3471C14.23 11.9714 14.3663 11.6737 14.5822 11.4539C14.7982 11.2342 15.1038 11.1243 15.4951 11.1243C15.8564 11.1243 16.1582 11.2275 16.4035 11.4346C16.6459 11.6432 16.7828 11.9462 16.8107 12.3471H14.1743ZM16.8701 10.1502C17.2788 10.3298 17.6152 10.6149 17.8801 11.004C18.1217 11.347 18.2767 11.745 18.3475 12.1971C18.3888 12.4614 18.4054 12.8445 18.3986 13.3427H14.1367C14.1623 13.9211 14.364 14.3272 14.7493 14.5596C14.9826 14.7044 15.2633 14.7772 15.593 14.7772C15.9399 14.7772 16.2236 14.6888 16.4411 14.5129C16.5608 14.4171 16.6662 14.2849 16.7565 14.1156H18.3181C18.2767 14.4572 18.0871 14.8054 17.7514 15.1588C17.2276 15.7194 16.4938 16 15.5508 16C14.7719 16 14.0848 15.7639 13.491 15.2902C12.8942 14.8173 12.5977 14.0466 12.5977 12.9804C12.5977 11.9803 12.8663 11.2134 13.4029 10.6795C13.941 10.1472 14.6372 9.87916 15.4944 9.87916C16.0039 9.87916 16.4622 9.96974 16.8701 10.1502ZM7.17677 14.449V12.3679H9.12447C9.46314 12.3709 9.7273 12.4154 9.91544 12.5C10.2519 12.6522 10.4189 12.9307 10.4189 13.3375C10.4189 13.8172 10.2458 14.1409 9.89889 14.3116C9.70848 14.403 9.44056 14.449 9.09738 14.449H7.17677ZM7.17677 9.35499V11.0768H9.10039C9.44282 11.0768 9.72203 11.0122 9.93727 10.883C10.151 10.7538 10.2586 10.5251 10.2586 10.1984C10.2586 9.83388 10.1171 9.59406 9.83416 9.47675C9.58882 9.39582 9.27725 9.35499 8.8987 9.35499H7.17677Z" fill="white"/>
</svg>
