<svg width="24" height="24" viewBox="0 0 24 24" fill="none" xmlns="http://www.w3.org/2000/svg">
<path d="M0 12C0 5.37258 5.37258 0 12 0C18.6274 0 24 5.37258 24 12C24 18.6274 18.6274 24 12 24C5.37258 24 0 18.6274 0 12Z" fill="#7289DA"/>
<path d="M15.2139 16.8022C15.2139 16.8022 14.7974 16.3106 14.4502 15.8762C15.966 15.4533 16.5446 14.516 16.5446 14.516C16.0702 14.8246 15.6189 15.0418 15.2139 15.1904C14.6354 15.4304 14.08 15.5905 13.5361 15.6819C12.4253 15.8877 11.4071 15.8305 10.5393 15.6705C9.87971 15.5447 9.31273 15.3618 8.83832 15.179C8.57219 15.0761 8.28291 14.9503 7.99364 14.7903C7.95893 14.7674 7.92421 14.756 7.8895 14.7331C7.86636 14.7217 7.85479 14.7103 7.84322 14.6988C7.63494 14.5845 7.51923 14.5045 7.51923 14.5045C7.51923 14.5045 8.07464 15.419 9.54415 15.8534C9.19702 16.2878 8.76889 16.8022 8.76889 16.8022C6.21171 16.7221 5.23975 15.0646 5.23975 15.0646C5.23975 11.3839 6.90597 8.40036 6.90597 8.40036C8.57219 7.16581 10.1574 7.20011 10.1574 7.20011L10.2731 7.33728C8.19035 7.93169 7.22995 8.83474 7.22995 8.83474C7.22995 8.83474 7.48452 8.69757 7.91264 8.50324C9.15074 7.96598 10.1343 7.81738 10.5393 7.78309C10.6087 7.77166 10.6665 7.76023 10.736 7.76023C11.4418 7.66878 12.2402 7.64592 13.0733 7.73736C14.1725 7.86311 15.3528 8.18317 16.5562 8.83474C16.5562 8.83474 15.6421 7.97742 13.675 7.383L13.837 7.20011C13.837 7.20011 15.4222 7.16581 17.0884 8.40036C17.0884 8.40036 18.7546 11.3839 18.7546 15.0646C18.7546 15.0646 17.7711 16.7221 15.2139 16.8022Z" fill="white"/>
<path fill-rule="evenodd" clip-rule="evenodd" d="M8.98877 12.9777C8.98877 12.2597 9.50536 11.6713 10.1597 11.6713C10.8141 11.6713 11.3421 12.2597 11.3306 12.9777C11.3306 13.6956 10.8141 14.2841 10.1597 14.2841C9.51684 14.2841 8.98877 13.6956 8.98877 12.9777ZM13.1787 12.9777C13.1787 12.2597 13.6953 11.6713 14.3496 11.6713C15.004 11.6713 15.5206 12.2597 15.5206 12.9777C15.5206 13.6956 15.004 14.2841 14.3496 14.2841C13.7068 14.2841 13.1787 13.6956 13.1787 12.9777Z" fill="#7289DA"/>
</svg>
