<svg width="24" height="24" viewBox="0 0 24 24" fill="none" xmlns="http://www.w3.org/2000/svg">
<path d="M0 12C0 5.37258 5.37258 0 12 0C18.6274 0 24 5.37258 24 12C24 18.6274 18.6274 24 12 24C5.37258 24 0 18.6274 0 12Z" fill="#0077B5"/>
<path fill-rule="evenodd" clip-rule="evenodd" d="M8.65948 7.41135C8.65948 8.1959 8.06892 8.82367 7.12069 8.82367H7.10331C6.19033 8.82367 5.6001 8.1959 5.6001 7.41135C5.6001 6.6102 6.2083 6 7.13861 6C8.06892 6 8.64183 6.6102 8.65948 7.41135ZM8.48037 9.93892V18.1098H5.76091V9.93892H8.48037ZM18.2877 18.1098L18.2878 13.4249C18.2878 10.9151 16.9462 9.74706 15.1567 9.74706C13.7128 9.74706 13.0664 10.5401 12.7054 11.0965V9.93914H9.98565C10.0215 10.7059 9.98565 18.11 9.98565 18.11H12.7054V13.5467C12.7054 13.3025 12.7231 13.0589 12.795 12.8841C12.9915 12.3962 13.439 11.8911 14.1903 11.8911C15.1748 11.8911 15.5683 12.6404 15.5683 13.7384V18.1098H18.2877Z" fill="white"/>
</svg>
