<svg width="24" height="24" viewBox="0 0 24 24" fill="none" xmlns="http://www.w3.org/2000/svg">
<path d="M0 12C0 5.37258 5.37258 0 12 0C18.6274 0 24 5.37258 24 12C24 18.6274 18.6274 24 12 24C5.37258 24 0 18.6274 0 12Z" fill="#4680C2"/>
<path fill-rule="evenodd" clip-rule="evenodd" d="M18.6705 8.55516C18.7743 8.24201 18.6705 8.01425 18.2109 8.01425H16.6837C16.2982 8.01425 16.1203 8.21352 16.0165 8.42708C16.0165 8.42708 15.2307 10.2491 14.1335 11.4306C13.7776 11.7722 13.6145 11.8861 13.4218 11.8861C13.318 11.8861 13.1845 11.7722 13.1845 11.4591V8.54091C13.1845 8.17082 13.0659 8 12.7397 8H10.3377C10.1005 8 9.95226 8.17082 9.95226 8.34164C9.95226 8.69753 10.5008 8.78292 10.5601 9.77936V11.9431C10.5601 12.4128 10.4712 12.4982 10.2784 12.4982C9.75949 12.4982 8.4992 10.6619 7.74302 8.56941C7.59472 8.15658 7.44647 8 7.06098 8H5.51894C5.07414 8 5 8.19931 5 8.41283C5 8.79717 5.51894 10.7331 7.4168 13.2954C8.67713 15.0463 10.4712 15.9858 12.0873 15.9858C13.0659 15.9858 13.1845 15.7722 13.1845 15.4164V14.0926C13.1845 13.6655 13.2735 13.5943 13.5849 13.5943C13.8073 13.5943 14.2076 13.7082 15.112 14.548C16.1499 15.5445 16.3279 16 16.9061 16H18.4333C18.8781 16 19.0857 15.7865 18.9671 15.3737C18.8336 14.9609 18.3295 14.363 17.6771 13.6512C17.3213 13.2527 16.7875 12.8114 16.6244 12.5979C16.402 12.3132 16.4613 12.1993 16.6244 11.9431C16.6096 11.9431 18.4778 9.40927 18.6705 8.55516Z" fill="white"/>
</svg>
