<svg width="48" height="48" viewBox="0 0 48 48" fill="none" xmlns="http://www.w3.org/2000/svg">
<rect width="48" height="48" rx="24" fill="white"/>
<path d="M5.232 23.784C4.776 24 4.68 24.192 4.68 24.672V25.968C4.68 26.448 4.776 26.64 5.232 26.856L15.36 32.208C15.552 32.28 15.696 32.328 15.768 32.328C16.008 32.328 16.128 32.136 16.128 31.776V29.496C16.128 28.992 16.008 28.8 15.504 28.536L9.192 25.32L15.504 22.104C16.008 21.84 16.128 21.648 16.128 21.144V18.864C16.128 18.504 16.008 18.312 15.768 18.312C15.696 18.312 15.552 18.36 15.36 18.432L5.232 23.784ZM26.6438 15.888C26.0918 15.888 25.9718 15.984 25.7798 16.464L19.0118 32.688C18.9638 32.808 18.9398 32.904 18.9398 32.976C18.9398 33.192 19.1078 33.312 19.4198 33.312H22.0358C22.5398 33.312 22.7078 33.216 22.9238 32.736L29.6678 16.512C29.7158 16.392 29.7398 16.296 29.7398 16.224C29.7398 16.008 29.5718 15.888 29.2598 15.888H26.6438ZM33.1719 28.536C32.6679 28.8 32.5479 28.992 32.5479 29.496V31.776C32.5479 32.136 32.6679 32.328 32.9079 32.328C32.9799 32.328 33.1239 32.28 33.3159 32.208L43.4439 26.856C43.8999 26.64 43.9959 26.448 43.9959 25.968V24.672C43.9959 24.192 43.8999 24 43.4439 23.784L33.3159 18.432C33.1239 18.36 32.9799 18.312 32.9079 18.312C32.6679 18.312 32.5479 18.504 32.5479 18.864V21.144C32.5479 21.648 32.6679 21.84 33.1719 22.104L39.4839 25.32L33.1719 28.536Z" fill="#333333"/>
</svg>
