<svg width="16" height="16" viewBox="0 0 16 16" fill="none" xmlns="http://www.w3.org/2000/svg">
<path fill-rule="evenodd" clip-rule="evenodd" d="M8.01449 0.0600586C3.60497 0.0600586 0.0292969 3.69603 0.0292969 8.18157C0.0292969 11.7699 2.3173 14.8143 5.49006 15.8882C5.88913 15.9634 6.03564 15.712 6.03564 15.4975C6.03564 15.3038 6.02824 14.664 6.0248 13.9854C3.80331 14.4767 3.33455 13.0272 3.33455 13.0272C2.97131 12.0884 2.44794 11.8388 2.44794 11.8388C1.72345 11.3347 2.50255 11.3451 2.50255 11.3451C3.3044 11.4022 3.72662 12.182 3.72662 12.182C4.43882 13.4236 5.59465 13.0647 6.05032 12.8572C6.12199 12.3324 6.32893 11.9738 6.5573 11.7711C4.78368 11.5658 2.91921 10.8694 2.91921 7.75739C2.91921 6.87069 3.23115 6.14619 3.74196 5.57742C3.65905 5.37273 3.38573 4.54682 3.81931 3.42812C3.81931 3.42812 4.48986 3.20984 6.01581 4.26062C6.65277 4.08067 7.33588 3.99043 8.01449 3.98733C8.6931 3.99043 9.37673 4.08067 10.0149 4.26062C11.539 3.20984 12.2086 3.42812 12.2086 3.42812C12.6432 4.54682 12.3698 5.37273 12.2869 5.57742C12.7989 6.14619 13.1087 6.87069 13.1087 7.75739C13.1087 10.8768 11.2407 11.5636 9.46255 11.7647C9.74897 12.0167 10.0042 12.511 10.0042 13.2687C10.0042 14.3553 9.99492 15.2299 9.99492 15.4975C9.99492 15.7136 10.1387 15.9669 10.5434 15.8871C13.7145 14.812 15.9995 11.7687 15.9995 8.18157C15.9995 3.69603 12.4244 0.0600586 8.01449 0.0600586Z" fill="#C2C9D7"/>
<path fill-rule="evenodd" clip-rule="evenodd" d="M3.05369 11.7208C3.03611 11.7613 2.97369 11.7733 2.91683 11.7456C2.85892 11.7191 2.82639 11.6641 2.84516 11.6236C2.86235 11.582 2.9249 11.5706 2.98268 11.5982C3.04073 11.6248 3.07379 11.6804 3.05369 11.7208Z" fill="#C2C9D7"/>
<path fill-rule="evenodd" clip-rule="evenodd" d="M3.37713 12.0877C3.33905 12.1236 3.2646 12.107 3.21409 12.0502C3.16186 11.9936 3.15207 11.9179 3.19069 11.8814C3.22996 11.8455 3.30216 11.8623 3.35452 11.9189C3.40675 11.9762 3.41693 12.0514 3.37713 12.0877Z" fill="#C2C9D7"/>
<path fill-rule="evenodd" clip-rule="evenodd" d="M3.69197 12.5555C3.64305 12.5901 3.56305 12.5576 3.51359 12.4854C3.46467 12.4132 3.46467 12.3266 3.51465 12.2919C3.56424 12.2572 3.64305 12.2884 3.69316 12.3601C3.74196 12.4334 3.74196 12.5201 3.69197 12.5555Z" fill="#C2C9D7"/>
<path fill-rule="evenodd" clip-rule="evenodd" d="M4.12331 13.0074C4.07954 13.0565 3.98632 13.0433 3.91809 12.9763C3.84827 12.9108 3.82883 12.8179 3.87273 12.7688C3.91703 12.7196 4.01078 12.7334 4.07954 12.7999C4.14883 12.8652 4.16999 12.9588 4.12331 13.0074Z" fill="#C2C9D7"/>
<path fill-rule="evenodd" clip-rule="evenodd" d="M4.71835 13.2698C4.69905 13.3334 4.60926 13.3623 4.51882 13.3353C4.4285 13.3074 4.3694 13.2329 4.38764 13.1686C4.40642 13.1046 4.4966 13.0745 4.58771 13.1034C4.67789 13.1311 4.73713 13.2051 4.71835 13.2698Z" fill="#C2C9D7"/>
<path fill-rule="evenodd" clip-rule="evenodd" d="M5.37184 13.3185C5.37409 13.3854 5.2974 13.441 5.20245 13.4421C5.10698 13.4443 5.02976 13.3901 5.0287 13.3242C5.0287 13.2566 5.10368 13.2016 5.19915 13.2C5.29409 13.1981 5.37184 13.2519 5.37184 13.3185Z" fill="#C2C9D7"/>
<path fill-rule="evenodd" clip-rule="evenodd" d="M5.97997 13.2132C5.99135 13.2785 5.92536 13.3456 5.83108 13.3634C5.73839 13.3807 5.65257 13.3404 5.6408 13.2756C5.6293 13.2086 5.69647 13.1415 5.78903 13.1241C5.88345 13.1074 5.96794 13.1467 5.97997 13.2132Z" fill="#C2C9D7"/>
</svg>
